<svg width="824" height="283" viewBox="0 0 824 283" fill="none" xmlns="http://www.w3.org/2000/svg">
<path d="M525.565 259.965C508.741 259.965 495.121 244.452 495.121 223.767C495.121 203.083 508.34 187.57 525.565 187.57C542.39 187.57 556.41 203.083 556.41 223.767C556.41 244.452 542.39 259.965 525.565 259.965ZM556.41 186.63H552.805C545.995 172.527 533.577 164.535 519.156 164.535C495.522 164.535 473.89 190.39 473.89 223.767C473.89 257.145 495.121 283 519.156 283C533.577 283 545.995 275.008 552.805 260.905H556.41V280.179H577.641V167.356H556.41V186.63ZM676.986 211.545H627.714V166.885H606.483V279.709H627.714V235.05H676.986V279.709H698.217V166.885H676.986V211.545ZM771.924 222.357L821.596 167.356H792.755L748.29 219.066V167.356H727.059V280.179H748.29V228.468L793.155 280.179H824L771.924 222.357ZM423.817 257.615H389.768V229.409H423.817C433.431 229.409 437.838 235.05 437.838 243.512C438.238 251.973 433.832 257.615 423.817 257.615ZM426.221 207.314H389.768V188.98H451.457V166.885H368.937V279.709H426.221C445.849 279.709 459.469 264.666 459.469 243.512C459.469 222.357 445.849 207.314 426.221 207.314ZM51.6753 94.9602C34.8508 94.9602 21.2309 79.4469 21.2309 58.7625C21.2309 38.0781 34.4502 22.5648 51.6753 22.5648C68.9004 22.5648 82.5202 38.0781 82.5202 58.7625C82.5202 79.4469 68.4998 94.9602 51.6753 94.9602ZM82.1196 22.0947H78.5144C71.7045 7.99174 59.2864 0 45.266 0C21.6315 0 0 25.8555 0 59.2326C0 92.6097 21.2309 117.995 45.266 117.995C59.687 117.995 72.105 110.003 78.5144 95.9004H82.1196V115.174H102.95V2.3505H82.1196V22.0947ZM671.778 94.9602C654.553 94.9602 641.735 79.4469 641.735 59.2326C641.735 39.0183 654.553 23.0349 671.778 23.0349C688.603 23.0349 701.822 38.5482 701.822 59.2326C701.822 79.4469 689.003 94.9602 671.778 94.9602ZM671.778 0C646.542 0 626.112 20.2143 621.705 47.4801H603.679V2.8206H582.849V115.174H603.679V70.515H621.305C625.711 97.7808 646.141 118.465 671.378 118.465C699.819 118.465 722.652 92.1396 722.652 59.7027C723.053 26.3256 699.819 0 671.778 0ZM730.664 25.8555H765.915V115.174H786.746V25.8555H821.997V2.3505H730.664V25.8555ZM499.127 2.3505L457.867 114.704H479.899L511.946 24.9153L543.992 114.704H567.226L525.966 2.3505H499.127ZM288.42 23.0349C309.25 23.0349 314.859 41.8389 314.859 41.8389H336.891C336.891 41.8389 328.078 0 288.42 0C259.979 0 237.546 26.3256 237.546 59.2326C237.546 92.6097 259.979 118.465 288.42 118.465C328.078 118.465 336.891 76.6263 336.891 76.6263H314.859C314.859 76.6263 309.25 95.4303 288.42 95.4303C271.596 95.4303 259.177 79.917 259.177 59.2326C259.177 38.5482 271.596 23.0349 288.42 23.0349ZM187.874 93.0798H153.824V64.8738H187.874C197.488 64.8738 201.894 70.515 201.894 78.9768C201.894 87.4386 197.888 93.0798 187.874 93.0798ZM190.277 42.7791H153.824V24.4452H215.514V2.3505H132.994V114.704H190.678C210.306 114.704 223.926 99.6612 223.926 78.5067C223.926 57.3522 209.906 42.7791 190.277 42.7791ZM400.984 94.9602C383.358 94.9602 370.139 79.4469 370.139 59.2326C370.139 39.0183 382.958 23.0349 400.984 23.0349C418.209 23.0349 431.829 38.5482 431.829 59.2326C431.428 79.4469 418.61 94.9602 400.984 94.9602ZM400.984 0C371.741 0 348.908 26.3256 348.908 59.2326C348.908 92.1396 371.741 117.995 400.984 117.995C429.826 117.995 453.06 91.6695 453.06 59.2326C453.06 26.3256 429.425 0 400.984 0Z" fill="#FF5000"/>
</svg>
