<svg width="2505" height="481" viewBox="0 0 2505 481" fill="none" xmlns="http://www.w3.org/2000/svg">
<path d="M329.111 61.67L325.08 56.0632L321.133 61.7918L89.1895 394.416H104.893L325.248 78.9777L546.527 394.416H562.398L329.111 61.67Z" fill="#A38959"/>
<path d="M326.076 24.7426L582.037 394.298H599.168L325.908 0L51.7241 394.42H68.6034L326.076 24.7426Z" fill="#A38959"/>
<path d="M652.834 473.284L623.694 430.38H29.8957L0 473.649L652.834 473.284Z" fill="#A38959"/>
<path d="M237.991 392.956V393.199H215.233V392.956C218.424 383.084 219.432 377.721 219.432 364.557V291.67L211.37 292.28C206.5 292.766 198.522 310.562 193.4 320.922L191.972 320.19L195.918 287.403H257.222L261.253 320.19L259.741 320.922C254.534 310.562 246.893 292.766 241.938 292.28L233.876 291.67V364.557C233.876 377.721 234.8 383.084 237.991 392.956Z" fill="#A38959"/>
<path d="M378.314 332.381L374.787 375.283C370.168 380.403 351.189 393.322 329.607 393.322C291.398 393.322 267.969 352.857 267.969 301.3C267.969 249.742 294.001 209.764 333.219 209.764C350.014 209.764 365.634 216.468 374.032 221.587L377.726 260.834L375.711 261.565C362.442 229.997 351.105 217.198 331.707 217.198C298.537 217.198 283.756 253.155 283.756 301.3C283.756 349.444 298.2 385.888 329.775 385.888C353.877 385.888 366.474 364.923 376.466 331.65L378.314 332.381Z" fill="#A38959"/>
<path d="M439.618 360.29C439.618 378.939 429.709 393.322 408.546 393.322H383.354V393.077C386.545 383.206 387.553 377.842 387.553 364.557V316.168C387.553 303.004 386.545 297.52 383.354 287.648V287.403H431.472L435.335 315.194L433.823 315.925C428.617 308.246 421.143 292.888 416.608 292.523L401.828 291.425V332.135H410.226C432.731 332.135 439.618 344.812 439.618 360.535V360.29ZM407.203 336.645H401.828V388.324C403.928 388.569 405.691 388.569 407.119 388.569C420.051 388.569 424.754 374.673 424.754 360.535C424.754 343.471 417.952 336.645 407.203 336.645Z" fill="#A38959"/>
<path d="M813.993 329.614V330.304H776.05V329.614C783.782 312.35 785.327 302.682 785.327 279.549V92.0669L755.354 93.448C747.028 94.1386 732.755 127.975 722.764 149.899L720.028 148.519L729.305 83.0898H860.738L870.015 148.519L867.279 149.899C857.288 127.975 843.49 94.1386 834.926 93.448L804.715 92.0669V279.549C804.715 302.855 806.38 312.35 813.993 329.614Z" fill="#17375B"/>
<path d="M884.874 406.949V406.257C889.75 390.375 890.703 376.218 890.703 350.841V211.006C890.703 193.397 885.588 183.04 879.998 176.306V175.616L907.474 157.317V188.045L909.138 188.391C917.464 170.437 931.976 159.043 948.984 159.043C978.129 159.043 998.111 193.225 998.111 243.808C998.111 294.389 978.597 335.304 938.041 335.304C925.196 335.304 915.681 330.989 908.544 325.119V350.496C908.544 375.528 909.019 390.375 914.373 406.257V406.949H885.112H884.874ZM940.302 325.637C962.663 325.637 978.724 296.979 978.724 249.332C978.724 201.685 962.187 176.998 940.302 176.998C925.196 176.998 913.777 188.563 908.425 199.612V294.216C914.729 316.141 927.218 325.637 940.302 325.637Z" fill="#17375B"/>
<path d="M1042.01 335.478C1025.48 335.478 1014.06 322.358 1014.06 300.605C1014.06 260.726 1051.29 242.599 1078.52 237.42V210.49C1078.52 189.6 1073.41 175.962 1054.14 175.962C1041.77 175.962 1029.76 181.659 1020.6 191.499L1018.46 188.047C1028.45 171.128 1044.03 159.044 1063.18 159.044C1089.47 159.044 1096.24 180.279 1096.24 204.275V301.468C1096.24 310.964 1098.98 317.351 1106 317.351C1110.87 317.351 1114.57 313.898 1118.14 308.201L1120.04 310.618C1117.06 320.803 1110.52 334.269 1097.43 334.269C1085.31 334.269 1079.48 322.703 1079 309.581C1071.03 323.048 1057.83 335.305 1042.01 335.305V335.478ZM1031.31 293.527C1031.31 308.373 1038.08 318.559 1050.81 318.559C1062.7 318.559 1072.94 310.101 1078.52 300.95V245.88C1055.21 251.577 1031.31 265.733 1031.31 293.527Z" fill="#17375B"/>
<path d="M1160.59 220.677V240.53H1215.78V220.332C1215.78 195.989 1214.83 181.143 1209.95 164.915V164.225H1239.09V164.915C1233.74 181.143 1233.5 194.953 1233.5 220.677V274.021C1233.5 299.744 1233.74 313.899 1239.09 329.782V330.472H1209.95V329.782C1214.83 313.899 1215.78 298.708 1215.78 274.367V250.025H1160.59V274.021C1160.59 299.398 1160.83 313.899 1166.18 329.782V330.472H1137.04V329.782C1141.68 313.899 1142.86 299.744 1142.86 274.367V220.332C1142.86 194.953 1141.68 181.143 1137.04 164.915V164.225H1166.18V164.915C1160.83 181.143 1160.59 195.299 1160.59 220.677Z" fill="#17375B"/>
<path d="M1357.68 289.214L1360.3 291.632C1353.52 315.973 1337.22 335.481 1313.56 335.481C1282.39 335.481 1261.22 302.335 1261.22 251.407C1261.22 195.302 1290.12 159.219 1322.24 159.219C1338.06 159.219 1348.52 165.607 1354.35 169.751L1357.09 207.559L1354.71 208.594C1345.91 187.014 1334.01 168.715 1317.95 168.715C1295.11 168.715 1279.54 195.647 1279.54 240.359C1279.54 285.072 1295.36 313.384 1322.11 313.384C1335.55 313.384 1349.36 305.96 1357.68 289.388V289.214Z" fill="#17375B"/>
<path d="M1472.82 289.214L1475.44 291.632C1468.66 315.973 1452.36 335.481 1428.69 335.481C1397.53 335.481 1376.36 302.335 1376.36 251.407C1376.36 195.302 1405.26 159.219 1437.37 159.219C1453.19 159.219 1463.66 165.607 1469.49 169.751L1472.23 207.559L1469.85 208.594C1461.05 187.014 1449.15 168.715 1433.09 168.715C1410.26 168.715 1394.67 195.647 1394.67 240.359C1394.67 285.072 1410.49 313.384 1437.26 313.384C1450.7 313.384 1464.49 305.96 1472.82 289.388V289.214Z" fill="#17375B"/>
<path d="M1517.31 174.413C1510.29 175.104 1505.17 184.254 1492.21 211.875L1490.07 210.839L1495.89 164.228H1590.33L1596.16 210.839L1594.02 211.875C1580.94 184.254 1575.82 175.104 1568.93 174.413L1551.92 173.033V274.024C1551.92 299.401 1552.15 313.903 1557.51 329.786V330.477H1528.49V329.786C1533.36 313.903 1534.32 299.746 1534.32 274.369V173.033L1517.31 174.413Z" fill="#17375B"/>
<path d="M1615.79 406.949V406.257C1620.67 390.375 1621.62 376.218 1621.62 350.841V211.006C1621.62 193.397 1616.5 183.04 1610.91 176.306V175.616L1638.39 157.317V188.045L1640.05 188.391C1648.38 170.437 1662.89 159.043 1679.9 159.043C1709.04 159.043 1729.03 193.225 1729.03 243.808C1729.03 294.389 1709.52 335.304 1668.96 335.304C1656.12 335.304 1646.59 330.989 1639.46 325.119V350.496C1639.46 375.528 1639.94 390.375 1645.29 406.257V406.949H1616.03H1615.79ZM1671.22 325.637C1693.58 325.637 1709.64 296.979 1709.64 249.332C1709.64 201.685 1693.11 176.998 1671.22 176.998C1656.12 176.998 1644.69 188.563 1639.34 199.612V294.216C1645.65 316.141 1658.13 325.637 1671.22 325.637Z" fill="#17375B"/>
<path d="M1808 335.478C1774.69 335.478 1747.21 295.598 1747.45 247.261C1747.45 199.268 1775.17 159.044 1808 159.044C1840.82 159.044 1868.77 199.268 1868.77 247.261C1868.77 295.253 1841.3 335.478 1808 335.478ZM1808 325.637C1835 325.637 1848.67 289.901 1848.67 247.261C1848.67 204.62 1834.75 168.885 1808 168.885C1781.23 168.885 1767.56 204.965 1767.56 247.261C1767.56 289.556 1781 325.637 1808 325.637Z" fill="#17375B"/>
<path d="M1913.51 220.673V304.401L1972.86 164.22H1993.08V164.911C1987.49 181.139 1987.25 194.949 1987.25 220.673V274.017C1987.25 299.739 1987.49 313.895 1993.08 329.778V330.468H1963.82V329.778C1968.7 313.895 1969.65 298.704 1969.65 274.362V190.288L1910.06 330.468H1890.08V329.778C1894.72 313.895 1895.9 299.739 1895.9 274.362V220.328C1895.9 194.949 1894.72 181.139 1890.08 164.911V164.22H1919.1V164.911C1913.74 181.139 1913.51 195.294 1913.51 220.673ZM1942.41 124.687C1956.33 124.687 1958.71 109.84 1958.95 90.1599H1974.77C1973.81 113.811 1964.53 133.319 1942.41 133.319C1920.29 133.319 1911.01 113.811 1910.3 90.1599H1925.88C1926.12 109.668 1928.62 124.687 1942.41 124.687Z" fill="#17375B"/>
<path d="M2100.95 107.775C2089.77 110.537 2079.78 111.745 2070.5 114.162C2056.83 117.615 2048.14 123.657 2042.79 138.849C2038.63 150.934 2036.01 167.507 2034.47 191.158H2035.41C2043.98 173.204 2059.21 161.12 2078.24 161.12C2108.68 161.12 2129.39 195.302 2129.39 244.848C2129.39 294.393 2111.19 335.308 2071.94 335.308C2036.61 335.308 2014.01 298.192 2014.01 234.662C2014.01 150.243 2042.68 97.5892 2111.78 77.5635C2118.56 75.4919 2121.77 71.8666 2124.15 66.6875H2126.3C2125.1 91.7196 2119.04 104.495 2101.2 107.602L2100.95 107.775ZM2033.28 241.567C2033.28 291.804 2046.36 326.332 2071.94 326.332C2094.53 326.332 2110.12 296.984 2110.12 250.027C2110.12 203.07 2092.63 179.419 2069.44 179.419C2052.67 179.419 2039.94 190.985 2034.11 203.76C2033.63 213.946 2033.4 224.995 2033.4 241.567H2033.28Z" fill="#17375B"/>
<path d="M2173.28 335.478C2156.75 335.478 2145.33 322.358 2145.33 300.605C2145.33 260.726 2182.56 242.599 2209.8 237.42V210.49C2209.8 189.6 2204.68 175.962 2185.41 175.962C2173.04 175.962 2161.03 181.659 2151.87 191.499L2149.73 188.047C2159.72 171.128 2175.31 159.044 2194.45 159.044C2220.74 159.044 2227.52 180.279 2227.52 204.275V301.468C2227.52 310.964 2230.25 317.351 2237.27 317.351C2242.15 317.351 2245.83 313.898 2249.4 308.201L2251.3 310.618C2248.33 320.803 2241.79 334.269 2228.71 334.269C2216.57 334.269 2210.75 322.703 2210.27 309.581C2202.3 323.048 2189.1 335.305 2173.28 335.305V335.478ZM2162.58 293.527C2162.58 308.373 2169.36 318.559 2182.08 318.559C2193.98 318.559 2204.21 310.101 2209.8 300.95V245.88C2186.48 251.577 2162.58 265.733 2162.58 293.527Z" fill="#17375B"/>
<path d="M2291.86 220.677V240.53H2347.05V220.332C2347.05 195.989 2346.1 181.143 2341.22 164.915V164.225H2370.36V164.915C2365.01 181.143 2364.77 194.953 2364.77 220.677V274.021C2364.77 299.744 2365.01 313.899 2370.36 329.782V330.472H2341.22V329.782C2346.1 313.899 2347.05 298.708 2347.05 274.367V250.025H2291.86V274.021C2291.86 299.398 2292.09 313.899 2297.46 329.782V330.472H2268.31V329.782C2272.95 313.899 2274.14 299.744 2274.14 274.367V220.332C2274.14 194.953 2272.95 181.143 2268.31 164.915V164.225H2297.46V164.915C2292.09 181.143 2291.86 195.299 2291.86 220.677Z" fill="#17375B"/>
<path d="M2420.68 220.677V274.021C2420.68 299.398 2420.92 313.899 2426.27 329.782V330.472H2397.25V329.782C2401.89 313.899 2403.07 299.744 2403.07 274.367V220.332C2403.07 194.953 2401.89 181.143 2397.25 164.915V164.225H2426.27V164.915C2420.92 181.143 2420.68 195.299 2420.68 220.677ZM2495.61 330.472H2468.38L2424.61 243.636L2453.75 195.989C2460.52 184.768 2462.31 172.683 2456.96 164.915V164.225H2487.88V164.915C2476.46 173.028 2469.92 182.524 2459.45 199.442L2439.95 231.897L2473.49 298.363C2481.58 314.589 2486.93 323.049 2495.61 329.782V330.472Z" fill="#17375B"/>
</svg>
