<?xml version="1.0" encoding="UTF-8"?>
<svg id="_Слой_2" data-name="Слой 2" xmlns="http://www.w3.org/2000/svg" xmlns:xlink="http://www.w3.org/1999/xlink" viewBox="0 0 942.03 278.67">
  <defs>
    <style>
      .cls-1 {
        fill: #fff;
      }

      .cls-2 {
        fill: url(#_Безымянный_градиент_3-3);
      }

      .cls-3 {
        fill: url(#_Безымянный_градиент_3-4);
      }

      .cls-4 {
        fill: url(#_Безымянный_градиент_3-2);
      }

      .cls-5 {
        fill: #00e1cf;
      }

      .cls-6 {
        fill: url(#_Безымянный_градиент_3);
      }
    </style>
    <linearGradient id="_Безымянный_градиент_3" data-name="Безымянный градиент 3" x1="73.83" y1="183.17" x2="73.83" y2="63.34" gradientUnits="userSpaceOnUse">
      <stop offset="0" stop-color="#1d194c"/>
      <stop offset="1" stop-color="#00e1cf"/>
    </linearGradient>
    <linearGradient id="_Безымянный_градиент_3-2" data-name="Безымянный градиент 3" x1="408.23" y1="183.17" x2="408.23" y2="63.34" xlink:href="#_Безымянный_градиент_3"/>
    <linearGradient id="_Безымянный_градиент_3-3" data-name="Безымянный градиент 3" x1="201.25" y1="183.17" x2="201.25" y2="63.34" xlink:href="#_Безымянный_градиент_3"/>
    <linearGradient id="_Безымянный_градиент_3-4" data-name="Безымянный градиент 3" x1="318.54" y1="183.17" x2="318.54" y2="63.34" xlink:href="#_Безымянный_градиент_3"/>
  </defs>
  <g id="_Слой_1-2" data-name="Слой 1">
    <g>
      <polygon class="cls-1" points="577.96 8.71 556.79 8.71 531.27 77.6 549.13 77.6 567.4 24.86 585.62 77.6 603.48 77.6 577.96 8.71"/>
      <path class="cls-1" d="M687,8.71V77.6h-16.84V30.35l-25.05,47.25h-19.84V8.71h16.84V55.96l25.05-47.25h19.84Z"/>
      <path class="cls-1" d="M723.33,77.6v19.66h-17.72v-33.08h9c3.97-1.79,6.66-4.51,8.08-8.17,2.68-6.77,4.01-18.2,4.01-34.28V8.71h49.05v55.47h15.41v33.08h-17.72v-19.66h-50.11Zm15-13.43h19.66V22.14h-13.52v4.2c0,14.52-2.05,27.13-6.14,37.84Z"/>
      <path class="cls-1" d="M812.79,8.71h47.94v13.43h-30.18v12.83h28.38v13.43h-28.38v15.78h31.19v13.43h-48.96V8.71Z"/>
      <path class="cls-1" d="M885.32,8.71h29.48c8.77,0,15.5,1.95,20.19,5.84,4.69,3.89,7.03,9.44,7.03,16.63s-2.35,12.79-7.03,16.68c-4.69,3.89-11.42,5.84-20.19,5.84h-11.72v23.9h-17.76V8.71Zm17.76,12.88v19.24h9.83c3.44,0,6.1-.84,7.98-2.52,1.88-1.67,2.82-4.05,2.82-7.13s-.94-5.45-2.82-7.11c-1.88-1.66-4.54-2.49-7.98-2.49h-9.83Z"/>
      <path class="cls-1" d="M531.92,191V122.11h48.96v13.43h-31.19v55.46h-17.76Z"/>
      <path class="cls-1" d="M633.94,178.45h-27.78l-4.39,12.55h-17.86l25.52-68.89h21.18l25.52,68.89h-17.86l-4.34-12.55Zm-23.35-12.78h18.87l-9.42-27.41-9.46,27.41Z"/>
      <path class="cls-1" d="M665.27,122.11h29.48c8.77,0,15.5,1.95,20.19,5.84,4.69,3.89,7.03,9.44,7.03,16.63s-2.35,12.79-7.03,16.68c-4.69,3.89-11.42,5.84-20.19,5.84h-11.72v23.9h-17.76V122.11Zm17.76,12.88v19.24h9.83c3.44,0,6.1-.84,7.98-2.52,1.88-1.67,2.82-4.05,2.82-7.13s-.94-5.45-2.82-7.11c-1.88-1.66-4.54-2.49-7.98-2.49h-9.83Z"/>
      <path class="cls-1" d="M776.34,178.45h-27.78l-4.39,12.55h-17.86l25.52-68.89h21.18l25.52,68.89h-17.86l-4.34-12.55Zm-23.35-12.78h18.87l-9.42-27.41-9.46,27.41Z"/>
      <path class="cls-1" d="M807.67,122.11h17.76v26.26h26.21v-26.26h17.76v68.89h-17.76v-29.21h-26.21v29.21h-17.76V122.11Z"/>
      <path class="cls-1" d="M878.54,122.11h63.49v13.43h-22.84v55.46h-17.77v-55.46h-22.89v-13.43Z"/>
      <g>
        <path class="cls-5" d="M22.58,274.62v3.44H14.4v-3.44c-3.18-.45-5.81-1.48-7.9-3.1-2.89-2.24-4.33-5.33-4.33-9.28s1.44-7.06,4.33-9.3c2.08-1.61,4.71-2.65,7.9-3.1v-3.48h8.18v3.48c3.18,.45,5.81,1.49,7.88,3.1,2.89,2.24,4.33,5.34,4.33,9.3s-1.44,7.04-4.33,9.28c-2.07,1.6-4.69,2.63-7.88,3.1Zm-8.18-6.39v-12c-.65,.27-1.22,.62-1.72,1.04-1.38,1.18-2.06,2.83-2.06,4.97s.69,3.83,2.06,4.95c.48,.42,1.05,.77,1.72,1.04Zm8.18,0c.67-.27,1.24-.62,1.72-1.04,1.37-1.29,2.06-2.94,2.06-4.95s-.69-3.74-2.06-4.97c-.47-.42-1.04-.77-1.72-1.04v12Z"/>
        <path class="cls-5" d="M78.06,246.36v31.7h-7.75v-21.74l-11.53,21.74h-9.13v-31.7h7.75v21.74l11.53-21.74h9.13Z"/>
        <path class="cls-5" d="M94.74,246.36h8.18v12.08h12.06v-12.08h8.18v31.7h-8.18v-13.44h-12.06v13.44h-8.18v-31.7Z"/>
        <path class="cls-5" d="M159.06,272.29h-12.78l-2.02,5.77h-8.22l11.74-31.7h9.74l11.74,31.7h-8.22l-2-5.77Zm-10.74-5.88h8.68l-4.33-12.61-4.35,12.61Z"/>
        <path class="cls-5" d="M182.17,246.36h8.18v12.08h12.06v-12.08h8.18v31.7h-8.18v-13.44h-12.06v13.44h-8.18v-31.7Z"/>
        <path class="cls-5" d="M252.39,276.32c-1.5,.78-3.06,1.37-4.69,1.76-1.63,.39-3.33,.59-5.1,.59-5.28,0-9.46-1.48-12.54-4.43-3.09-2.95-4.63-6.95-4.63-12.01s1.54-9.07,4.63-12.02c3.08-2.95,7.27-4.43,12.54-4.43,1.77,0,3.47,.2,5.1,.59,1.63,.39,3.19,.98,4.69,1.76v6.56c-1.51-1.03-3-1.79-4.48-2.27-1.47-.48-3.02-.72-4.65-.72-2.92,0-5.21,.94-6.88,2.8-1.67,1.87-2.51,4.44-2.51,7.73s.84,5.84,2.51,7.71c1.67,1.87,3.96,2.8,6.88,2.8,1.63,0,3.18-.24,4.65-.72,1.48-.48,2.97-1.24,4.48-2.27v6.56Z"/>
        <path class="cls-5" d="M282.34,245.79c5.1,0,9.09,1.46,11.97,4.37,2.89,2.92,4.33,6.94,4.33,12.08s-1.44,9.14-4.33,12.06c-2.89,2.91-6.88,4.37-11.97,4.37s-9.07-1.46-11.97-4.37c-2.89-2.92-4.33-6.94-4.33-12.06s1.44-9.16,4.33-12.08c2.9-2.91,6.89-4.37,11.97-4.37Zm0,5.92c-2.49,0-4.42,.92-5.79,2.76-1.38,1.84-2.06,4.43-2.06,7.77s.69,5.91,2.06,7.75c1.37,1.84,3.3,2.76,5.79,2.76s4.44-.92,5.82-2.76c1.37-1.84,2.06-4.42,2.06-7.75s-.69-5.93-2.06-7.77c-1.38-1.84-3.31-2.76-5.82-2.76Z"/>
        <path class="cls-5" d="M334.09,261.1c1.75,.51,3.11,1.45,4.08,2.82,.96,1.37,1.44,3.06,1.44,5.05,0,3.05-1.03,5.34-3.1,6.84-2.07,1.5-5.21,2.25-9.43,2.25h-13.57v-31.7h12.27c4.4,0,7.59,.67,9.56,2s2.96,3.46,2.96,6.39c0,1.55-.36,2.86-1.08,3.94-.72,1.08-1.77,1.89-3.14,2.41Zm-7.88-2.46c1.29,0,2.27-.28,2.93-.85s1-1.4,1-2.51-.33-1.92-1-2.49-1.64-.86-2.93-.86h-4.52v6.71h4.52Zm.27,13.87c1.64,0,2.88-.35,3.71-1.04,.83-.69,1.24-1.74,1.24-3.14s-.41-2.4-1.23-3.09c-.82-.69-2.06-1.03-3.72-1.03h-4.8v8.3h4.8Z"/>
        <path class="cls-5" d="M381.45,268.27c0,3.37-1.03,5.8-3.1,7.3-2.28,1.66-5.42,2.49-9.43,2.49h-13.57v-31.7h8.18v12.08h5.39c4.01,0,7.15,.83,9.43,2.49,2.07,1.5,3.1,3.95,3.1,7.34Zm-13.12,4.23c1.71,0,2.95-.32,3.72-.96,.82-.69,1.23-1.7,1.23-3.02s-.41-2.27-1.23-2.95c-.75-.64-1.99-.95-3.72-.95h-4.8v7.88h4.8Zm15.92-26.13h8.18v31.7h-8.18v-31.7Z"/>
        <path class="cls-5" d="M437.52,246.36v31.7h-7.75v-21.74l-11.53,21.74h-9.13v-31.7h7.75v21.74l11.53-21.74h9.13Zm-21.34-8.62h3.04c.3,.86,.79,1.5,1.46,1.93,.68,.42,1.56,.64,2.64,.64s1.95-.21,2.63-.64c.68-.43,1.17-1.07,1.46-1.93h3.04c-.23,1.82-.95,3.22-2.17,4.17-1.22,.95-2.87,1.43-4.97,1.43s-3.75-.48-4.97-1.43c-1.22-.96-1.94-2.35-2.17-4.17Z"/>
        <path class="cls-5" d="M478.03,246.36h10.4l7.22,16.96,7.26-16.96h10.38v31.7h-7.73v-23.18l-7.3,17.09h-5.18l-7.3-17.09v23.18h-7.75v-31.7Z"/>
        <path class="cls-5" d="M549.22,272.29h-12.78l-2.02,5.77h-8.22l11.74-31.7h9.74l11.74,31.7h-8.22l-2-5.77Zm-10.74-5.88h8.68l-4.33-12.61-4.35,12.61Z"/>
        <path class="cls-5" d="M572.34,246.36h13.57c4.04,0,7.13,.89,9.29,2.68,2.16,1.79,3.24,4.34,3.24,7.65s-1.08,5.89-3.24,7.68c-2.16,1.79-5.25,2.68-9.29,2.68h-5.39v11h-8.18v-31.7Zm8.18,5.92v8.85h4.52c1.58,0,2.81-.39,3.67-1.16,.86-.77,1.29-1.86,1.29-3.28s-.43-2.5-1.29-3.27c-.86-.76-2.09-1.15-3.67-1.15h-4.52Z"/>
        <path class="cls-5" d="M612.9,246.36h8.18v11.57l11.78-11.57h9.49l-15.26,15.01,16.83,16.69h-10.23l-12.61-12.49v12.49h-8.18v-31.7Z"/>
        <path class="cls-5" d="M655.29,246.36h22.06v6.18h-13.89v5.9h13.05v6.18h-13.05v7.26h14.35v6.18h-22.53v-31.7Z"/>
        <path class="cls-5" d="M689.91,246.36h29.21v6.18h-10.51v25.52h-8.17v-25.52h-10.53v-6.18Z"/>
        <path class="cls-5" d="M760.45,246.36v31.7h-8.18v-25.52h-12.06v25.52h-8.18v-31.7h28.41Z"/>
        <path class="cls-5" d="M774.28,278.65v-5.9c3.44-.64,5.62-2.18,6.56-4.63,1.23-3.21,1.85-8.47,1.85-15.77v-5.99h22.57v31.7h-8.18v-25.52h-6.22v1.93c0,6.47-.88,12.1-2.63,16.9-1.68,4.58-6.33,7.01-13.95,7.28Z"/>
        <path class="cls-5" d="M821.93,246.36h22.06v6.18h-13.89v5.9h13.05v6.18h-13.05v7.26h14.35v6.18h-22.53v-31.7Z"/>
        <path class="cls-5" d="M888.74,246.36v31.7h-7.75v-21.74l-11.53,21.74h-9.13v-31.7h7.75v21.74l11.53-21.74h9.13Zm-21.34-8.62h3.04c.3,.86,.79,1.5,1.46,1.93,.68,.42,1.56,.64,2.64,.64s1.95-.21,2.63-.64c.68-.43,1.17-1.07,1.46-1.93h3.04c-.23,1.82-.95,3.22-2.17,4.17-1.22,.95-2.87,1.43-4.97,1.43s-3.75-.48-4.97-1.43c-1.22-.96-1.94-2.35-2.17-4.17Z"/>
        <path class="cls-5" d="M930.56,276.32c-1.5,.78-3.06,1.37-4.69,1.76-1.63,.39-3.33,.59-5.1,.59-5.28,0-9.46-1.48-12.54-4.43-3.09-2.95-4.63-6.95-4.63-12.01s1.54-9.07,4.63-12.02c3.08-2.95,7.27-4.43,12.54-4.43,1.77,0,3.47,.2,5.1,.59,1.63,.39,3.19,.98,4.69,1.76v6.56c-1.51-1.03-3-1.79-4.48-2.27-1.47-.48-3.02-.72-4.65-.72-2.92,0-5.21,.94-6.88,2.8-1.67,1.87-2.51,4.44-2.51,7.73s.84,5.84,2.51,7.71c1.67,1.87,3.96,2.8,6.88,2.8,1.63,0,3.18-.24,4.65-.72,1.48-.48,2.97-1.24,4.48-2.27v6.56Z"/>
      </g>
      <g>
        <polygon class="cls-6" points="93.9 191.39 0 191.39 54.45 96.79 147.66 96.79 93.9 191.39"/>
        <polygon class="cls-4" points="439.04 0 486.22 81.19 377.07 81.63 330.25 1.05 439.04 0"/>
        <polygon class="cls-2" points="208.39 191.39 302.29 191.39 192.71 1.03 100.22 1.03 208.39 191.39"/>
        <polygon class="cls-3" points="325.68 191.39 419.58 191.39 310 1.03 217.5 1.03 325.68 191.39"/>
      </g>
    </g>
  </g>
</svg>