<svg width="1840" height="721" viewBox="0 0 1840 721" fill="none" xmlns="http://www.w3.org/2000/svg">
<path d="M379.867 0.507416L788.867 720.507H1143.87L729.867 3.50742L379.867 0.507416Z" fill="#3CE8D1"/>
<path d="M1236.87 720.507H1586.87L1176.87 3.50742H826.867L1236.87 720.507Z" fill="#3CE8D1"/>
<path d="M1432.87 308.507H1838.87L1668.87 3.50742H1258.87L1432.87 308.507Z" fill="#3CE8D1"/>
<path d="M205.867 366.507L0.867188 720.507H354.867L557.867 366.507H205.867Z" fill="#3CE8D1"/>
<path d="M379.867 0.507416L788.867 720.507H1143.87L729.867 3.50742L379.867 0.507416Z" stroke="black"/>
<path d="M1236.87 720.507H1586.87L1176.87 3.50742H826.867L1236.87 720.507Z" stroke="black"/>
<path d="M1432.87 308.507H1838.87L1668.87 3.50742H1258.87L1432.87 308.507Z" stroke="black"/>
<path d="M205.867 366.507L0.867188 720.507H354.867L557.867 366.507H205.867Z" stroke="black"/>
</svg>
